<svg width="150" height="150" viewBox="0 0 150 150" fill="none" xmlns="http://www.w3.org/2000/svg">
  <circle cx="75" cy="75" r="75" fill="#EAF1FE" />
  <g clip-path="url(#clip0_1_540)">
    <path opacity="0.4" d="M43.1016 61.5362V98.9855C43.1016 100.738 43.8227 102.419 45.1063 103.659C46.39 104.898 48.131 105.594 49.9463 105.594H100.141C101.956 105.594 103.697 104.898 104.981 103.659C106.264 102.419 106.986 100.738 106.986 98.9855V61.5362H43.1016ZM92.3351 77.0942L71.9435 96.6174C71.7845 96.7714 71.5956 96.8936 71.3876 96.977C71.1796 97.0604 70.9566 97.1033 70.7314 97.1033C70.5062 97.1033 70.2832 97.0604 70.0752 96.977C69.8672 96.8936 69.6783 96.7714 69.5193 96.6174L57.7407 85.1541C57.5817 85 57.4558 84.8172 57.3702 84.6161C57.2846 84.415 57.2409 84.1995 57.2417 83.9821C57.2425 83.7646 57.2877 83.5495 57.3748 83.3489C57.4619 83.1484 57.5892 82.9664 57.7493 82.8135L57.7607 82.8025L61.8105 78.924C61.9694 78.77 62.1583 78.6478 62.3663 78.5644C62.5743 78.481 62.7973 78.438 63.0226 78.438C63.2478 78.438 63.4708 78.481 63.6788 78.5644C63.8868 78.6478 64.0757 78.77 64.2346 78.924L70.7942 85.3069L85.9096 70.8242C86.0686 70.6702 86.2575 70.548 86.4655 70.4646C86.6735 70.3812 86.8965 70.3383 87.1217 70.3383C87.3469 70.3383 87.5699 70.3812 87.7779 70.4646C87.9859 70.548 88.1748 70.6702 88.3338 70.8242L92.3408 74.7536C92.4999 74.9075 92.6261 75.0902 92.7119 75.2912C92.7978 75.4922 92.8418 75.7076 92.8412 75.9251C92.8407 76.1425 92.7957 76.3577 92.7088 76.5583C92.622 76.759 92.495 76.9411 92.3351 77.0942ZM86.4515 52.7246H91.0146C91.6197 52.7246 92.2001 52.4925 92.6279 52.0794C93.0558 51.6663 93.2962 51.106 93.2962 50.5217V37.3043C93.2962 36.7201 93.0558 36.1598 92.6279 35.7467C92.2001 35.3335 91.6197 35.1014 91.0146 35.1014H86.4515C85.8464 35.1014 85.266 35.3335 84.8381 35.7467C84.4103 36.1598 84.1699 36.7201 84.1699 37.3043V50.5217C84.1699 51.106 84.4103 51.6663 84.8381 52.0794C85.266 52.4925 85.8464 52.7246 86.4515 52.7246ZM59.0726 52.7246H63.6357C64.2408 52.7246 64.8212 52.4925 65.249 52.0794C65.6769 51.6663 65.9173 51.106 65.9173 50.5217V37.3043C65.9173 36.7201 65.6769 36.1598 65.249 35.7467C64.8212 35.3335 64.2408 35.1014 63.6357 35.1014H59.0726C58.4675 35.1014 57.8871 35.3335 57.4593 35.7467C57.0314 36.1598 56.791 36.7201 56.791 37.3043V50.5217C56.791 51.106 57.0314 51.6663 57.4593 52.0794C57.8871 52.4925 58.4675 52.7246 59.0726 52.7246Z" fill="#75A5FF" />
    <path d="M92.5976 74.7536L88.6456 70.8435C88.4903 70.6885 88.3054 70.5653 88.1015 70.4807C87.8976 70.3961 87.6787 70.3519 87.4574 70.3506C87.236 70.3494 87.0166 70.391 86.8117 70.4732C86.6068 70.5554 86.4204 70.6766 86.2633 70.8297L71.4085 85.3124L64.962 78.9295C64.8066 78.7747 64.6216 78.6515 64.4177 78.567C64.2137 78.4826 63.9948 78.4385 63.7735 78.4374C63.5521 78.4362 63.3327 78.478 63.1279 78.5603C62.923 78.6426 62.7367 78.7639 62.5797 78.9171L58.5997 82.7956C58.442 82.9482 58.3165 83.1298 58.2304 83.3302C58.1443 83.5305 58.0993 83.7456 58.098 83.963C58.0967 84.1805 58.1391 84.396 58.2228 84.5973C58.3065 84.7987 58.4298 84.9818 58.5857 85.1362L70.1612 96.5995C70.3165 96.7544 70.5014 96.8777 70.7053 96.9623C70.9093 97.0469 71.1282 97.0911 71.3495 97.0923C71.5708 97.0936 71.7902 97.052 71.9951 96.9697C72.2001 96.8875 72.3864 96.7664 72.5436 96.6133L92.5836 77.0901C92.7413 76.9375 92.8668 76.7558 92.9528 76.5555C93.0389 76.3552 93.0839 76.1401 93.0852 75.9226C93.0865 75.7052 93.0441 75.4896 92.9604 75.2883C92.8768 75.087 92.7534 74.9039 92.5976 74.7495V74.7536ZM100.259 43.913H93.5323V50.5217C93.5323 51.106 93.2961 51.6663 92.8756 52.0794C92.4551 52.4925 91.8848 52.7246 91.2901 52.7246H86.8056C86.2109 52.7246 85.6406 52.4925 85.2201 52.0794C84.7996 51.6663 84.5634 51.106 84.5634 50.5217V43.913H66.6255V50.5217C66.6255 51.106 66.3892 51.6663 65.9688 52.0794C65.5482 52.4925 64.9779 52.7246 64.3833 52.7246H59.8988C59.3041 52.7246 58.7338 52.4925 58.3133 52.0794C57.8928 51.6663 57.6565 51.106 57.6565 50.5217V43.913H50.9298C49.1458 43.913 47.4348 44.6093 46.1733 45.8487C44.9118 47.0881 44.2031 48.769 44.2031 50.5217V61.5362H106.986V50.5217C106.986 48.769 106.277 47.0881 105.016 45.8487C103.754 44.6093 102.043 43.913 100.259 43.913Z" fill="white" />
    <path opacity="0.4" d="M71.5956 96.2583L71.5977 96.2562L91.9892 76.7331C92.1017 76.6254 92.19 76.4984 92.25 76.3597C92.31 76.2211 92.3409 76.073 92.3412 75.9238C92.3416 75.7747 92.3115 75.6265 92.2521 75.4876C92.1928 75.3487 92.1051 75.2212 91.9933 75.1131L91.9907 75.1106L87.9858 71.1833C87.9854 71.1829 87.9851 71.1825 87.9847 71.1822C87.8731 71.0744 87.7398 70.988 87.5918 70.9287C87.4433 70.8691 87.2835 70.8383 87.1217 70.8383C86.9599 70.8383 86.8 70.8691 86.6515 70.9287C86.503 70.9882 86.3693 71.075 86.2575 71.1833L86.2555 71.1852L71.1401 85.6679L70.7915 86.0019L70.4455 85.6652L63.8867 79.2831C63.8866 79.2829 63.8864 79.2828 63.8863 79.2827C63.7746 79.1746 63.641 79.0879 63.4927 79.0285C63.3442 78.9689 63.1843 78.938 63.0226 78.938C62.8608 78.938 62.7009 78.9689 62.5524 79.0285C62.4039 79.088 62.2701 79.1748 62.1584 79.2831L62.1563 79.2851L58.108 83.1622L58.1065 83.1636L58.0966 83.1732L58.0947 83.175C57.9821 83.2825 57.8937 83.4095 57.8334 83.5481C57.7732 83.6867 57.7422 83.8347 57.7417 83.9839C57.7411 84.133 57.7711 84.2813 57.8302 84.4202C57.8894 84.5592 57.9769 84.6867 58.0886 84.795L58.0894 84.7957L69.8673 96.2583H71.5956ZM71.5956 96.2583C71.4838 96.3666 71.3501 96.4534 71.2016 96.5129M71.5956 96.2583L71.2016 96.5129M71.2016 96.5129C71.053 96.5725 70.8932 96.6033 70.7314 96.6033M71.2016 96.5129L70.7314 96.6033M70.7314 96.6033C70.5696 96.6033 70.4098 96.5725 70.2613 96.5129M70.7314 96.6033L70.2613 96.5129M70.2613 96.5129C70.1131 96.4535 69.9797 96.367 69.8681 96.2591L70.2613 96.5129ZM43.1016 61.0362H42.6016V61.5362V98.9855C42.6016 100.877 43.3798 102.687 44.759 104.018C46.1377 105.349 48.0039 106.094 49.9463 106.094H100.141C102.083 106.094 103.95 105.349 105.328 104.018C106.707 102.687 107.486 100.877 107.486 98.9855V61.5362V61.0362H106.986H43.1016ZM86.4515 53.2246H91.0146C91.7468 53.2246 92.4523 52.944 92.9752 52.4391C93.4987 51.9337 93.7962 51.2444 93.7962 50.5217V37.3043C93.7962 36.5817 93.4987 35.8924 92.9752 35.387C92.4523 34.8821 91.7468 34.6014 91.0146 34.6014H86.4515C85.7193 34.6014 85.0137 34.8821 84.4908 35.387C83.9674 35.8924 83.6699 36.5817 83.6699 37.3043V50.5217C83.6699 51.2444 83.9674 51.9337 84.4908 52.4391C85.0137 52.944 85.7193 53.2246 86.4515 53.2246ZM59.0726 53.2246H63.6357C64.3679 53.2246 65.0735 52.944 65.5963 52.4391C66.1198 51.9337 66.4173 51.2444 66.4173 50.5217V37.3043C66.4173 36.5817 66.1198 35.8924 65.5963 35.387C65.0735 34.8821 64.3679 34.6014 63.6357 34.6014H59.0726C58.3404 34.6014 57.6349 34.8821 57.112 35.387C56.5885 35.8924 56.291 36.5817 56.291 37.3043V50.5217C56.291 51.2444 56.5885 51.9337 57.112 52.4391C57.6348 52.944 58.3404 53.2246 59.0726 53.2246Z" fill="#AAAAAA" stroke="black" />
    <path d="M91.8451 73.5649V73.57L88.6738 70.4864C88.6736 70.4863 88.6734 70.4861 88.6733 70.4859C88.4684 70.2852 88.2254 70.1263 87.9588 70.0177C87.692 69.9089 87.4061 69.8523 87.1175 69.8506C86.8289 69.849 86.5424 69.9024 86.2743 70.0081C86.0061 70.1138 85.7612 70.27 85.5538 70.4686L85.5537 70.4687L70.7869 84.6174L64.5745 78.5722C64.5743 78.572 64.5741 78.5718 64.5739 78.5716C64.3689 78.3711 64.1259 78.2124 63.8592 78.1039C63.5923 77.9953 63.3064 77.9388 63.0178 77.9374C62.7292 77.9359 62.4427 77.9894 62.1747 78.0953C61.9066 78.2011 61.6617 78.3575 61.4545 78.5562L57.4061 82.4332C57.406 82.4334 57.4058 82.4336 57.4056 82.4338C57.1977 82.6315 57.0313 82.8679 56.9168 83.1299C56.8022 83.3921 56.742 83.6742 56.7403 83.96C56.7385 84.2457 56.7952 84.5286 56.9067 84.7921C57.0182 85.0556 57.1819 85.2941 57.3877 85.4944L57.3877 85.4945L69.165 96.9565C69.1653 96.9569 69.1657 96.9572 69.166 96.9575C69.3708 97.158 69.6136 97.3167 69.88 97.4253C70.1468 97.5341 70.4327 97.5907 70.7213 97.5923C71.01 97.594 71.2965 97.5406 71.5646 97.4349C71.8327 97.3292 72.0776 97.173 72.285 96.9744C72.285 96.9744 72.285 96.9744 72.285 96.9744L92.6753 77.4524C92.6756 77.4522 92.6758 77.4519 92.6761 77.4517C92.8839 77.2539 93.0502 77.0176 93.1647 76.7558C93.2793 76.4936 93.3395 76.2114 93.3412 75.9257C93.343 75.6399 93.2862 75.3571 93.1748 75.0935C93.0633 74.83 92.8996 74.5915 92.6938 74.3912L91.8451 73.5649ZM93.2962 43.413H92.7962V43.913V50.5217C92.7962 50.9676 92.6129 51.3989 92.2806 51.7197C91.9478 52.0411 91.4927 52.2246 91.0146 52.2246H86.4515C85.9734 52.2246 85.5183 52.0411 85.1854 51.7197C84.8532 51.3989 84.6699 50.9676 84.6699 50.5217V43.913V43.413H84.1699H65.9173H65.4173V43.913V50.5217C65.4173 50.9676 65.234 51.3989 64.9017 51.7197C64.5689 52.0411 64.1138 52.2246 63.6357 52.2246H59.0726C58.5945 52.2246 58.1394 52.0411 57.8066 51.7197C57.4743 51.3989 57.291 50.9676 57.291 50.5217V43.913V43.413H56.791H49.9463C48.0039 43.413 46.1377 44.1579 44.759 45.489C43.3798 46.8207 42.6016 48.6306 42.6016 50.5217V61.5362V62.0362H43.1016H106.986H107.486V61.5362V50.5217C107.486 48.6306 106.707 46.8207 105.328 45.489C103.95 44.1579 102.083 43.413 100.141 43.413H93.2962Z" fill="white" stroke="#888888" />
  </g>
  <circle cx="102.579" cy="100.087" r="14.9203" fill="#F9FBFF" stroke="#888888" />
  <g clip-path="url(#clip1_1_540)">
    <path d="M108.244 98.6413H103.996V94.3043C103.996 93.7722 103.573 93.3406 103.052 93.3406H102.108C101.587 93.3406 101.164 93.7722 101.164 94.3043V98.6413H96.9153C96.394 98.6413 95.9712 99.0729 95.9712 99.6051V100.569C95.9712 101.101 96.394 101.533 96.9153 101.533H101.164V105.87C101.164 106.402 101.587 106.833 102.108 106.833H103.052C103.573 106.833 103.996 106.402 103.996 105.87V101.533H108.244C108.766 101.533 109.189 101.101 109.189 100.569V99.6051C109.189 99.0729 108.766 98.6413 108.244 98.6413Z" fill="#888888" />
  </g>
  <defs>
    <clipPath id="clip0_1_540">
      <rect width="66.087" height="72.6957" fill="white" transform="translate(42 34)" />
    </clipPath>
    <clipPath id="clip1_1_540">
      <rect width="13.2174" height="15.4203" fill="white" transform="translate(95.9712 92.3768)" />
    </clipPath>
  </defs>
</svg>