<svg width="64" height="64" viewBox="0 0 64 64" fill="none" xmlns="http://www.w3.org/2000/svg">
  <ellipse cx="32" cy="32" rx="32" ry="32" fill="#333333" />
  <g clip-path="url(#clip0_1_63)">
    <path d="M39.1111 30.25V21.5C39.1111 19.5695 37.5167 18 35.5556 18H19.5556C17.5944 18 16 19.5695 16 21.5V30.25C16 32.1805 17.5944 33.75 19.5556 33.75V36.7141C19.5556 37.1516 20.0611 37.4031 20.4167 37.1406L25.0167 33.7445H35.5556C37.5167 33.75 39.1111 32.1805 39.1111 30.25ZM44.4444 26.75H40.8889V30.25C40.8889 33.143 38.4944 35.5 35.5556 35.5H26.6667V39C26.6667 40.9305 28.2611 42.5 30.2222 42.5H37.2056L41.8056 45.8961C42.1611 46.1586 42.6667 45.907 42.6667 45.4695V42.5H44.4444C46.4056 42.5 48 40.9305 48 39V30.25C48 28.3195 46.4056 26.75 44.4444 26.75Z" fill="white" />
  </g>
  <defs>
    <clipPath id="clip0_1_63">
      <rect width="32" height="28" fill="white" transform="translate(16 18)" />
    </clipPath>
  </defs>
</svg>