<svg width="13" height="14" viewBox="0 0 13 14" fill="none" xmlns="http://www.w3.org/2000/svg">
  <path d="M12.5684 4.97656C12.526 4.86654 12.4499 4.77344 12.3398 4.69727C12.2383 4.62109 12.124 4.58301 11.9971 4.58301C11.9548 4.58301 11.9167 4.58724 11.8828 4.5957C11.849 4.60417 11.8151 4.61263 11.7812 4.62109L11.6035 4.69727C11.3242 4.1556 10.973 3.67741 10.5498 3.2627C10.1351 2.83952 9.6696 2.49251 9.15332 2.22168L9.17871 2.03125C9.19564 1.9974 9.2041 1.96354 9.2041 1.92969C9.21257 1.89583 9.2168 1.85775 9.2168 1.81543C9.2168 1.68848 9.17871 1.57422 9.10254 1.47266C9.03483 1.37109 8.94596 1.29492 8.83594 1.24414C8.48893 1.10872 8.11654 1.00293 7.71875 0.926758C7.32943 0.850586 6.92318 0.8125 6.5 0.8125C6.07682 0.8125 5.66634 0.850586 5.26855 0.926758C4.87077 1.00293 4.48991 1.11296 4.12598 1.25684C4.03288 1.29915 3.94824 1.37109 3.87207 1.47266C3.80436 1.57422 3.77051 1.68848 3.77051 1.81543C3.77051 1.85775 3.77474 1.89583 3.7832 1.92969C3.79167 1.96354 3.80013 1.9974 3.80859 2.03125L3.88477 2.20898C3.3431 2.48828 2.86068 2.83952 2.4375 3.2627C2.02279 3.67741 1.68001 4.1429 1.40918 4.65918L1.21875 4.63379C1.1849 4.61686 1.15104 4.6084 1.11719 4.6084C1.08333 4.59993 1.04525 4.5957 1.00293 4.5957C0.875977 4.5957 0.761719 4.63379 0.660156 4.70996C0.558594 4.77767 0.482422 4.86654 0.431641 4.97656C0.296224 5.32357 0.19043 5.69596 0.114258 6.09375C0.0380859 6.48307 0 6.88932 0 7.3125C0 7.73568 0.0380859 8.14616 0.114258 8.54395C0.19043 8.94173 0.300456 9.32259 0.444336 9.68652C0.486654 9.77962 0.558594 9.86426 0.660156 9.94043C0.761719 10.0081 0.875977 10.042 1.00293 10.042C1.04525 10.042 1.08333 10.0378 1.11719 10.0293C1.15104 10.0208 1.1849 10.0124 1.21875 10.0039L1.39648 9.92773C1.67578 10.4694 2.02279 10.9518 2.4375 11.375C2.86068 11.7897 3.3304 12.1325 3.84668 12.4033L3.82129 12.5938C3.80436 12.6276 3.79167 12.6615 3.7832 12.6953C3.7832 12.7292 3.7832 12.7673 3.7832 12.8096C3.7832 12.9365 3.81706 13.0508 3.88477 13.1523C3.96094 13.2539 4.05404 13.3301 4.16406 13.3809C4.51107 13.5163 4.87923 13.6221 5.26855 13.6982C5.66634 13.7744 6.07682 13.8125 6.5 13.8125C6.91471 13.8125 7.32096 13.7744 7.71875 13.6982C8.11654 13.6221 8.50163 13.512 8.87402 13.3682C8.96712 13.3258 9.04753 13.2539 9.11523 13.1523C9.18294 13.0508 9.2168 12.9365 9.2168 12.8096C9.2168 12.7673 9.21257 12.7292 9.2041 12.6953C9.2041 12.6615 9.19564 12.6276 9.17871 12.5938L9.11523 12.416C9.64844 12.1367 10.1266 11.7897 10.5498 11.375C10.973 10.9518 11.32 10.4821 11.5908 9.96582L11.7812 9.99121C11.8151 10.0081 11.849 10.0208 11.8828 10.0293C11.9167 10.0293 11.9548 10.0293 11.9971 10.0293C12.124 10.0293 12.2383 9.99544 12.3398 9.92773C12.4414 9.85156 12.5176 9.75846 12.5684 9.64844C12.7038 9.30143 12.8096 8.93327 12.8857 8.54395C12.9619 8.14616 13 7.73568 13 7.3125C13 6.89779 12.9619 6.49154 12.8857 6.09375C12.8096 5.69596 12.6995 5.31087 12.5557 4.93848L12.5684 4.97656ZM3.87207 8.36621L1.00293 9.41992C0.875977 9.10677 0.778646 8.77246 0.710938 8.41699C0.643229 8.06152 0.609375 7.69336 0.609375 7.3125C0.609375 6.93164 0.643229 6.56348 0.710938 6.20801C0.787109 5.84408 0.888672 5.49284 1.01562 5.1543L1.14258 5.25586L3.87207 6.25879C3.81283 6.4196 3.76204 6.58887 3.71973 6.7666C3.68587 6.94434 3.66895 7.1263 3.66895 7.3125C3.66895 7.4987 3.68587 7.68066 3.71973 7.8584C3.76204 8.03613 3.81706 8.20964 3.88477 8.37891L3.87207 8.36621ZM6.5 1.42188C6.88086 1.42188 7.24902 1.45996 7.60449 1.53613C7.96842 1.60384 8.31543 1.70117 8.64551 1.82812L8.55664 1.95508L7.55371 4.68457C7.3929 4.62533 7.22363 4.57878 7.0459 4.54492C6.86816 4.5026 6.6862 4.48145 6.5 4.48145C6.3138 4.48145 6.1276 4.5026 5.94141 4.54492C5.76367 4.57878 5.5944 4.62956 5.43359 4.69727L4.39258 1.81543C4.70573 1.68848 5.04004 1.59115 5.39551 1.52344C5.75098 1.45573 6.11914 1.42188 6.5 1.42188ZM6.5 13.2031C6.11914 13.2031 5.74674 13.165 5.38281 13.0889C5.02734 13.0212 4.68457 12.9238 4.35449 12.7969L5.44629 9.94043C5.6071 9.99967 5.77637 10.0505 5.9541 10.0928C6.13184 10.1266 6.3138 10.1436 6.5 10.1436C6.6862 10.1436 6.86816 10.1266 7.0459 10.0928C7.2321 10.0505 7.4056 9.99544 7.56641 9.92773L8.60742 12.8096C8.29427 12.9365 7.95996 13.0339 7.60449 13.1016C7.24902 13.1693 6.88086 13.2031 6.5 13.2031ZM8.55664 6.4873C8.60742 6.60579 8.64551 6.73698 8.6709 6.88086C8.70475 7.01628 8.72168 7.15592 8.72168 7.2998C8.72168 7.45215 8.70475 7.60026 8.6709 7.74414C8.64551 7.87956 8.60742 8.01074 8.55664 8.1377C8.53971 8.16309 8.52702 8.19694 8.51855 8.23926C8.51855 8.27311 8.51855 8.3112 8.51855 8.35352C8.51855 8.48893 8.55241 8.60742 8.62012 8.70898C8.69629 8.81055 8.79362 8.88249 8.91211 8.9248L8.98828 8.9502C8.86979 9.11947 8.74284 9.27604 8.60742 9.41992C8.47201 9.55534 8.32389 9.67806 8.16309 9.78809L8.125 9.72461C8.07422 9.60612 7.99805 9.50879 7.89648 9.43262C7.79492 9.35645 7.68066 9.31836 7.55371 9.31836C7.51139 9.31836 7.46908 9.32259 7.42676 9.33105C7.38444 9.33952 7.34635 9.35221 7.3125 9.36914C7.19401 9.41992 7.06283 9.45801 6.91895 9.4834C6.78353 9.50879 6.64388 9.52148 6.5 9.52148C6.34766 9.52148 6.19954 9.50879 6.05566 9.4834C5.92025 9.45801 5.78906 9.41569 5.66211 9.35645C5.63672 9.34798 5.60286 9.33952 5.56055 9.33105C5.52669 9.32259 5.48861 9.31836 5.44629 9.31836C5.31934 9.31836 5.20085 9.35645 5.09082 9.43262C4.98926 9.50879 4.91732 9.60189 4.875 9.71191L4.84961 9.78809C4.68034 9.67806 4.52799 9.55534 4.39258 9.41992C4.25716 9.27604 4.13444 9.1237 4.02441 8.96289L4.08789 8.9248C4.20638 8.88249 4.29948 8.81055 4.36719 8.70898C4.44336 8.60742 4.48145 8.48893 4.48145 8.35352C4.48145 8.3112 4.47721 8.27311 4.46875 8.23926C4.46029 8.19694 4.45182 8.15885 4.44336 8.125C4.39258 8.00651 4.35026 7.87956 4.31641 7.74414C4.29102 7.60026 4.27832 7.45215 4.27832 7.2998C4.27832 7.15592 4.29102 7.01628 4.31641 6.88086C4.35026 6.73698 4.39258 6.60156 4.44336 6.47461C4.46029 6.44922 4.46875 6.4196 4.46875 6.38574C4.47721 6.34342 4.48145 6.30111 4.48145 6.25879C4.48145 6.13184 4.44336 6.01758 4.36719 5.91602C4.29948 5.80599 4.20638 5.72982 4.08789 5.6875L4.01172 5.66211C4.13021 5.49284 4.25716 5.34049 4.39258 5.20508C4.52799 5.0612 4.67611 4.93848 4.83691 4.83691L4.875 4.90039C4.91732 5.01042 4.98926 5.10352 5.09082 5.17969C5.20085 5.25586 5.31934 5.29395 5.44629 5.29395C5.48861 5.29395 5.52669 5.28971 5.56055 5.28125C5.60286 5.27279 5.64518 5.26009 5.6875 5.24316C5.80599 5.20085 5.93294 5.16699 6.06836 5.1416C6.21224 5.10775 6.35612 5.09082 6.5 5.09082C6.64388 5.09082 6.78776 5.10775 6.93164 5.1416C7.07552 5.16699 7.21094 5.20508 7.33789 5.25586C7.36328 5.26432 7.3929 5.27279 7.42676 5.28125C7.46908 5.28971 7.51139 5.29395 7.55371 5.29395C7.68066 5.29395 7.79492 5.26009 7.89648 5.19238C8.00651 5.11621 8.08268 5.01888 8.125 4.90039L8.15039 4.82422C8.31966 4.93424 8.47201 5.0612 8.60742 5.20508C8.74284 5.34049 8.86556 5.48861 8.97559 5.64941L8.91211 5.6875C8.79362 5.72982 8.69629 5.80599 8.62012 5.91602C8.55241 6.01758 8.51855 6.13184 8.51855 6.25879C8.51855 6.30111 8.52279 6.34342 8.53125 6.38574C8.53971 6.4196 8.54818 6.45345 8.55664 6.4873ZM11.9971 9.41992L11.8574 9.36914L9.12793 8.36621C9.18717 8.2054 9.23372 8.03613 9.26758 7.8584C9.3099 7.68066 9.33105 7.4987 9.33105 7.3125C9.33105 7.1263 9.3099 6.94434 9.26758 6.7666C9.23372 6.5804 9.18294 6.4069 9.11523 6.24609L11.9971 5.20508C12.124 5.51823 12.2214 5.85254 12.2891 6.20801C12.3568 6.56348 12.3906 6.93164 12.3906 7.3125C12.3906 7.69336 12.3525 8.06576 12.2764 8.42969C12.2087 8.78516 12.1113 9.13216 11.9844 9.4707L11.9971 9.41992Z" fill="white"/>
</svg>
