<svg width="16" height="16" viewBox="0 0 16 16" fill="none" xmlns="http://www.w3.org/2000/svg">
<path d="M4.34375 13.3438C4.17708 13.8021 3.89583 14.1927 3.5 14.5156C3.10417 14.849 2.75 15.099 2.4375 15.2656C2.30208 15.3385 2.26562 15.3958 2.32812 15.4375C2.40104 15.4792 2.5 15.5 2.625 15.5H2.70312C3.51562 15.4375 4.28646 15.276 5.01562 15.0156C5.75521 14.7656 6.4375 14.4271 7.0625 14C7.1875 14.0312 7.33333 14.0521 7.5 14.0625C7.66667 14.0729 7.83333 14.0781 8 14.0781C9.10417 14.0781 10.1406 13.9062 11.1094 13.5625C12.0885 13.2083 12.9375 12.7292 13.6562 12.125C14.3854 11.5208 14.9583 10.8125 15.375 10C15.7917 9.19792 16 8.33333 16 7.40625C16 6.48958 15.7917 5.625 15.375 4.8125C14.9583 4.01042 14.3854 3.30729 13.6562 2.70312C12.9375 2.09896 12.0885 1.61979 11.1094 1.26562C10.1406 0.921875 9.10417 0.75 8 0.75C6.89583 0.75 5.85938 0.921875 4.89062 1.26562C3.92188 1.61979 3.07292 2.09896 2.34375 2.70312C1.625 3.30729 1.05208 4.01042 0.625 4.8125C0.208333 5.625 0 6.48958 0 7.40625C0 8.05208 0.104167 8.67188 0.3125 9.26562C0.53125 9.85938 0.828125 10.4115 1.20312 10.9219C1.58854 11.4323 2.04688 11.8958 2.57812 12.3125C3.11979 12.7188 3.71354 13.0625 4.35938 13.3438H4.34375Z" fill="white"/>
</svg>
