<svg width="13" height="12" viewBox="0 0 13 12" fill="none" xmlns="http://www.w3.org/2000/svg">
  <path d="M12.6729 5.58789L7.35449 0.269531C7.31803 0.233073 7.27246 0.205729 7.21777 0.1875C7.1722 0.169271 7.12207 0.160156 7.06738 0.160156C7.0127 0.160156 6.95801 0.169271 6.90332 0.1875C6.85775 0.205729 6.81217 0.233073 6.7666 0.269531L5.91895 1.13086C5.88249 1.16732 5.85059 1.21289 5.82324 1.26758C5.80501 1.31315 5.7959 1.36328 5.7959 1.41797C5.7959 1.47266 5.80501 1.52734 5.82324 1.58203C5.85059 1.6276 5.88249 1.66862 5.91895 1.70508L9.07715 4.86328H0.573242C0.472982 4.86328 0.386393 4.89974 0.313477 4.97266C0.24056 5.03646 0.204102 5.11849 0.204102 5.21875V6.53125C0.204102 6.63151 0.24056 6.7181 0.313477 6.79102C0.386393 6.85482 0.472982 6.88672 0.573242 6.88672H9.07715L5.91895 10.0449C5.88249 10.0814 5.85059 10.127 5.82324 10.1816C5.80501 10.2272 5.7959 10.2773 5.7959 10.332C5.7959 10.3867 5.80501 10.4414 5.82324 10.4961C5.85059 10.5508 5.88249 10.5964 5.91895 10.6328L6.7666 11.4805C6.81217 11.5169 6.85775 11.5443 6.90332 11.5625C6.95801 11.5807 7.0127 11.5898 7.06738 11.5898C7.12207 11.5898 7.1722 11.5807 7.21777 11.5625C7.27246 11.5443 7.31803 11.5169 7.35449 11.4805L12.6729 6.16211C12.7093 6.12565 12.7367 6.08464 12.7549 6.03906C12.7822 5.98438 12.7959 5.92969 12.7959 5.875C12.7959 5.82031 12.7822 5.77018 12.7549 5.72461C12.7367 5.66992 12.7093 5.62435 12.6729 5.58789Z" fill="#286EF1" />
</svg>