<svg width="150" height="150" viewBox="0 0 150 150" fill="none" xmlns="http://www.w3.org/2000/svg">
<circle cx="75" cy="75" r="75" fill="#EEF3FF"/>
<g clip-path="url(#clip0_1_410)">
<path opacity="0.4" d="M65.99 86.6191C64.8437 84.9603 64.2205 82.9937 64.2103 80.9713L64.2103 80.9689C64.2096 78.2662 65.2903 75.6745 67.2139 73.762C69.1133 71.8736 71.7463 70.507 74.4992 70.5C77.1716 70.4932 79.8876 71.2113 81.8512 73.1436C83.58 74.8449 85.2017 77.2979 85.4637 79.827L92.6621 77.5258L82.4559 53.0969L41.3177 73.0286C40.3856 73.4802 40.0114 74.4566 40.3302 75.2199C40.3302 75.2199 40.3302 75.2199 40.3302 75.2199L41.5186 78.0647L41.7125 78.5289L41.2472 78.72L32.5334 82.2986C32.1223 82.4675 31.797 82.7907 31.6276 83.1958C31.4583 83.6007 31.4581 84.0554 31.627 84.4605L65.99 86.6191ZM65.99 86.6191L49.3672 92.2796L49.3671 92.2796C48.3841 92.6144 47.4183 92.185 47.0984 91.4191L47.0984 91.4191L45.91 88.5746L45.7184 88.116L45.2587 88.3048L36.5439 91.8834C36.3404 91.967 36.1221 92.01 35.9015 92.01C35.681 92.01 35.4627 91.9669 35.2592 91.8833C35.0557 91.7997 34.8711 91.6773 34.7158 91.5233C34.5605 91.3693 34.4375 91.1868 34.3537 90.9861L34.3537 90.9861L31.6271 84.4608L65.99 86.6191Z" fill="#3D7DFF" stroke="#777777"/>
<path d="M118.189 69.2207L106.538 41.3312C106.428 41.0696 106.268 40.8319 106.066 40.6316C105.864 40.4314 105.625 40.2726 105.361 40.1642C105.097 40.0558 104.814 40 104.528 40C104.243 40 103.96 40.0557 103.696 40.1641L87.7485 46.7133C87.4846 46.8217 87.2449 46.9805 87.0429 47.1807C86.841 47.381 86.6808 47.6187 86.5715 47.8803C86.4622 48.1419 86.406 48.4223 86.4061 48.7054C86.4061 48.9886 86.4624 49.2689 86.5718 49.5305L98.2231 77.4201C98.4439 77.9485 98.8674 78.3682 99.4003 78.5871C99.9333 78.8059 100.532 78.806 101.065 78.5872L117.012 72.0379C117.276 71.9296 117.516 71.7708 117.718 71.5706C117.92 71.3704 118.08 71.1327 118.189 70.8711C118.299 70.6095 118.355 70.3291 118.355 70.0459C118.355 69.7627 118.299 69.4824 118.189 69.2207ZM82.4862 86.9663C83.8715 85.268 84.6315 83.1523 84.6411 80.9682C84.6411 78.3948 83.6099 75.9268 81.7744 74.1071C79.9389 72.2874 77.4494 71.2651 74.8536 71.2651C72.2578 71.2651 69.7683 72.2874 67.9328 74.1071C66.0972 75.9268 65.0661 78.3948 65.0661 80.9682C65.0755 83.1539 65.8366 85.271 67.2235 86.97L60.7713 106.161C60.6623 106.485 60.6326 106.831 60.6845 107.168C60.7365 107.506 60.8687 107.827 61.0702 108.104C61.2718 108.381 61.5368 108.607 61.8436 108.763C62.1504 108.918 62.4901 108.999 62.8348 108.999H65.1266C65.5831 108.999 66.028 108.857 66.3984 108.592C66.7687 108.328 67.0457 107.954 67.1901 107.525L72.9218 90.4776C74.1977 90.736 75.5132 90.7359 76.7891 90.4773L82.5213 107.525C82.6656 107.954 82.9426 108.328 83.3129 108.592C83.6833 108.857 84.1282 108.999 84.5848 108.999H86.8766C87.2212 108.999 87.561 108.918 87.8677 108.763C88.1745 108.607 88.4396 108.381 88.6411 108.104C88.8427 107.827 88.9749 107.506 89.0268 107.168C89.0788 106.831 89.0491 106.485 88.9401 106.161L82.4862 86.9663ZM74.8536 84.2026C74.2083 84.2026 73.5775 84.0129 73.041 83.6575C72.5045 83.3021 72.0863 82.797 71.8394 82.206C71.5925 81.615 71.5279 80.9646 71.6538 80.3372C71.7796 79.7098 72.0904 79.1335 72.5466 78.6812C73.0029 78.2288 73.5842 77.9208 74.2171 77.796C74.8499 77.6712 75.5059 77.7352 76.1021 77.9801C76.6982 78.2249 77.2077 78.6394 77.5662 79.1713C77.9247 79.7032 78.1161 80.3285 78.1161 80.9682C78.1148 81.8256 77.7706 82.6476 77.1591 83.2538C76.5475 83.8601 75.7184 84.2013 74.8536 84.2026Z" fill="#B3B0B0"/>
</g>
<g clip-path="url(#clip1_1_410)">
<g opacity="0.4">
<mask id="path-4-inside-1_1_410" fill="white">
<path fill-rule="evenodd" clip-rule="evenodd" d="M82.9711 51.736L94.0012 78.1369L84.4411 81.3924L84.1188 80.4457L92.666 77.5352L82.4559 53.0968L41.3177 73.0286C40.3856 73.4802 40.0113 74.4566 40.3301 75.2199C40.3301 75.2199 40.3301 75.2199 40.3301 75.2199L41.7124 78.5289L32.5334 82.2986C32.1222 82.4675 31.7969 82.7907 31.6275 83.1958C31.4583 83.6007 31.4581 84.0554 31.6269 84.4605M31.6269 84.4605L34.3536 90.9861C34.4374 91.1867 34.5604 91.3693 34.7157 91.5233C34.871 91.6773 35.0557 91.7997 35.2592 91.8833C35.4627 91.9669 35.6809 92.01 35.9015 92.01C36.122 92.01 36.3403 91.967 36.5438 91.8834L45.7184 88.116L47.0983 91.4191C47.4182 92.1849 48.384 92.6144 49.3671 92.2796L66.6391 86.3981L66.9615 87.3447L49.6895 93.2262C49.6895 93.2262 49.6895 93.2262 49.6895 93.2262C48.2926 93.702 46.7309 93.1339 46.1756 91.8046C46.1756 91.8046 46.1756 91.8046 46.1756 91.8046L45.1788 89.4186L36.9236 92.8085C36.5994 92.9416 36.2521 93.01 35.9014 93.01C35.5507 93.01 35.2034 92.9415 34.8792 92.8083C34.555 92.6752 34.2602 92.4799 34.0116 92.2334C33.7631 91.987 33.5657 91.6941 33.4309 91.3716L30.7042 84.846C30.4324 84.1943 30.4325 83.4617 30.7049 82.8101C30.9773 82.1587 31.4987 81.6425 32.1534 81.3736L40.4019 77.986L39.4074 75.6054C38.8511 74.2735 39.5527 72.7725 40.8816 72.1286L82.9711 51.736"/>
</mask>
<path fill-rule="evenodd" clip-rule="evenodd" d="M82.9711 51.736L94.0012 78.1369L84.4411 81.3924L84.1188 80.4457L92.666 77.5352L82.4559 53.0968L41.3177 73.0286C40.3856 73.4802 40.0113 74.4566 40.3301 75.2199C40.3301 75.2199 40.3301 75.2199 40.3301 75.2199L41.7124 78.5289L32.5334 82.2986C32.1222 82.4675 31.7969 82.7907 31.6275 83.1958C31.4583 83.6007 31.4581 84.0554 31.6269 84.4605M31.6269 84.4605L34.3536 90.9861C34.4374 91.1867 34.5604 91.3693 34.7157 91.5233C34.871 91.6773 35.0557 91.7997 35.2592 91.8833C35.4627 91.9669 35.6809 92.01 35.9015 92.01C36.122 92.01 36.3403 91.967 36.5438 91.8834L45.7184 88.116L47.0983 91.4191C47.4182 92.1849 48.384 92.6144 49.3671 92.2796L66.6391 86.3981L66.9615 87.3447L49.6895 93.2262C49.6895 93.2262 49.6895 93.2262 49.6895 93.2262C48.2926 93.702 46.7309 93.1339 46.1756 91.8046C46.1756 91.8046 46.1756 91.8046 46.1756 91.8046L45.1788 89.4186L36.9236 92.8085C36.5994 92.9416 36.2521 93.01 35.9014 93.01C35.5507 93.01 35.2034 92.9415 34.8792 92.8083C34.555 92.6752 34.2602 92.4799 34.0116 92.2334C33.7631 91.987 33.5657 91.6941 33.4309 91.3716L30.7042 84.846C30.4324 84.1943 30.4325 83.4617 30.7049 82.8101C30.9773 82.1587 31.4987 81.6425 32.1534 81.3736L40.4019 77.986L39.4074 75.6054C38.8511 74.2735 39.5527 72.7725 40.8816 72.1286L82.9711 51.736" fill="#777777"/>
<path d="M31.8957 84.8821L83.2398 52.1577L82.7024 51.3144L31.3582 84.0389L31.8957 84.8821ZM41.5496 72.3606L41.3316 71.9106L40.4317 72.3467L40.6497 72.7966L41.5496 72.3606ZM82.9711 51.736L83.8938 51.3505L83.4863 50.3752L82.5351 50.8361L82.9711 51.736ZM94.0012 78.1369L94.3235 79.0835L95.3363 78.7386L94.9239 77.7514L94.0012 78.1369ZM84.4411 81.3924L83.4945 81.7147L83.8169 82.6613L84.7635 82.339L84.4411 81.3924ZM84.1188 80.4457L83.7964 79.4991L82.8498 79.8215L83.1722 80.7681L84.1188 80.4457ZM92.666 77.5352L92.9884 78.4818L94.0012 78.1369L93.5887 77.1497L92.666 77.5352ZM82.4559 53.0968L83.3786 52.7113L82.9711 51.736L82.0199 52.1969L82.4559 53.0968ZM41.3177 73.0286L40.8816 72.1286L40.8816 72.1286L41.3177 73.0286ZM41.7124 78.5289L42.0923 79.4539L43.0229 79.0717L42.6351 78.1434L41.7124 78.5289ZM32.5334 82.2986L32.1535 81.3736L32.1534 81.3736L32.5334 82.2986ZM31.6275 83.1958L32.5502 83.5816L31.6275 83.1958ZM31.6269 84.4605L30.7039 84.8453L30.7042 84.846L31.6269 84.4605ZM34.3536 90.9861L35.2764 90.6007L35.2763 90.6005L34.3536 90.9861ZM34.7157 91.5233L34.0116 92.2334L34.0116 92.2334L34.7157 91.5233ZM35.2592 91.8833L35.6391 90.9583L35.6391 90.9583L35.2592 91.8833ZM35.9015 92.01L35.9014 93.01L35.9015 92.01ZM36.5438 91.8834L36.9236 92.8085L36.9237 92.8085L36.5438 91.8834ZM45.7184 88.116L46.6411 87.7305L46.2579 86.8134L45.3385 87.191L45.7184 88.116ZM47.0983 91.4191L48.0211 91.0337L48.021 91.0336L47.0983 91.4191ZM49.3671 92.2796L49.0447 91.333L49.0446 91.333L49.3671 92.2796ZM66.6391 86.3981L67.5858 86.0757L67.2634 85.1291L66.3168 85.4514L66.6391 86.3981ZM66.9615 87.3447L67.2838 88.2913L68.2305 87.969L67.9081 87.0223L66.9615 87.3447ZM45.1788 89.4186L46.1015 89.0331L45.7184 88.116L44.7989 88.4935L45.1788 89.4186ZM36.9236 92.8085L37.3034 93.7335L37.3035 93.7335L36.9236 92.8085ZM35.9014 93.01L35.9015 92.01L35.9014 93.01ZM34.8792 92.8083L34.4993 93.7333L34.4993 93.7333L34.8792 92.8083ZM34.0116 92.2334L34.7157 91.5233L34.7157 91.5233L34.0116 92.2334ZM33.4309 91.3716L34.3537 90.9861L34.3536 90.986L33.4309 91.3716ZM30.7042 84.846L29.7813 85.231L29.7816 85.2316L30.7042 84.846ZM30.7049 82.8101L31.6275 83.1958H31.6275L30.7049 82.8101ZM32.1534 81.3736L31.7735 80.4486L31.7734 80.4486L32.1534 81.3736ZM40.4019 77.986L40.7818 78.911L41.7124 78.5289L41.3246 77.6006L40.4019 77.986ZM39.4074 75.6054L38.4847 75.9908L38.4847 75.9908L39.4074 75.6054ZM40.8816 72.1286L40.4456 71.2287L40.4456 71.2287L40.8816 72.1286ZM83.1722 80.7681L83.4945 81.7147L85.3877 81.07L85.0654 80.1234L83.1722 80.7681ZM92.3437 76.5885L83.7964 79.4991L84.4411 81.3924L92.9884 78.4818L92.3437 76.5885ZM81.5332 53.4823L91.7433 77.9207L93.5887 77.1497L83.3786 52.7113L81.5332 53.4823ZM41.7537 73.9285L82.8919 53.9968L82.0199 52.1969L40.8816 72.1286L41.7537 73.9285ZM41.2529 74.8345C41.169 74.6337 41.2248 74.1847 41.7537 73.9285L40.8816 72.1286C39.5463 72.7756 38.8536 74.2795 39.4074 75.6053L41.2529 74.8345ZM41.2586 74.8485C41.2586 74.8485 41.2586 74.8485 41.2586 74.8485C41.2586 74.8485 41.2586 74.8485 41.2586 74.8485C40.3301 75.2199 39.4017 75.5913 39.4017 75.5913C39.4017 75.5913 39.4017 75.5913 39.4017 75.5913C39.4017 75.5913 39.4017 75.5913 39.4017 75.5913C39.4017 75.5913 39.4017 75.5913 39.4017 75.5913C39.4017 75.5913 39.4017 75.5913 39.4017 75.5913V75.5913H39.4017C39.4017 75.5913 40.3301 75.2199 41.2586 74.8485H41.2586C41.2586 74.8485 41.2586 74.8485 41.2586 74.8485C41.2586 74.8485 41.2586 74.8485 41.2586 74.8485H41.2586L39.4017 75.5913C39.4017 75.5913 39.4017 75.5913 39.4017 75.5913C39.4017 75.5913 39.4017 75.5913 39.4017 75.5913C40.3301 75.2199 41.2586 74.8485 41.2586 74.8485C41.2586 74.8485 41.2586 74.8485 41.2586 74.8485C41.2586 74.8485 41.2586 74.8485 41.2586 74.8485C41.2586 74.8485 41.2586 74.8485 41.2586 74.8485C41.2586 74.8485 41.2586 74.8485 41.2586 74.8485V74.8485H41.2586C41.2586 74.8485 40.3301 75.2199 39.4017 75.5913H39.4017C39.4017 75.5913 39.4017 75.5913 39.4017 75.5913C39.4017 75.5913 39.4017 75.5913 39.4017 75.5913H39.4017L41.2586 74.8485ZM32.5502 83.5816C32.6166 83.4226 32.7458 83.2924 32.9133 83.2236L32.1534 81.3736C31.4987 81.6425 30.9772 82.1588 30.7049 82.8101L32.5502 83.5816ZM32.5499 84.0757C32.4839 83.9172 32.4839 83.74 32.5502 83.5816L30.7049 82.8101C30.4326 83.4615 30.4323 84.1937 30.7039 84.8453L32.5499 84.0757ZM35.2763 90.6005L32.5496 84.075L30.7042 84.846L33.431 91.3716L35.2763 90.6005ZM35.4198 90.8132C35.3578 90.7517 35.3093 90.6794 35.2764 90.6007L33.4309 91.3715C33.5656 91.6941 33.763 91.9869 34.0116 92.2334L35.4198 90.8132ZM35.6391 90.9583C35.5563 90.9243 35.4819 90.8748 35.4198 90.8132L34.0116 92.2334C34.2602 92.4799 34.555 92.6752 34.8792 92.8083L35.6391 90.9583ZM35.9016 91.01C35.8111 91.01 35.7219 90.9923 35.6391 90.9583L34.8792 92.8083C35.2034 92.9415 35.5507 93.01 35.9014 93.01L35.9016 91.01ZM36.164 90.9583C36.0812 90.9924 35.992 91.01 35.9016 91.01L35.9014 93.01C36.2521 93.01 36.5994 92.9416 36.9236 92.8085L36.164 90.9583ZM49.0446 91.333C48.482 91.5247 48.108 91.2418 48.0211 91.0337L46.1756 91.8045C46.7284 93.1281 48.2861 93.7042 49.6895 93.2262L49.0446 91.333ZM66.3168 85.4514L49.0447 91.333L49.6894 93.2262L66.9615 87.3447L66.3168 85.4514ZM67.9081 87.0223L67.5858 86.0757L65.6925 86.7204L66.0149 87.667L67.9081 87.0223ZM50.0119 94.1728L67.2838 88.2913L66.6391 86.3981L49.3672 92.2795L50.0119 94.1728ZM49.6895 94.2262H49.6895H49.6895C49.6895 93.2262 49.6895 92.2262 49.6895 92.2262C49.6895 92.2262 49.6895 92.2262 49.6895 92.2262H49.6895H49.6895C49.6895 92.2262 49.6895 92.2262 49.6895 92.2262C49.6895 92.2262 49.6895 93.2262 49.6895 94.2262H49.6895H49.6895V92.2262H49.6895H49.6895C49.6895 93.2262 49.6895 94.2262 49.6895 94.2262C49.6895 94.2262 49.6895 94.2262 49.6895 94.2262H49.6895H49.6895C49.6895 94.2262 49.6895 94.2262 49.6895 94.2262C49.6895 94.2262 49.6895 93.2262 49.6895 92.2262H49.6895H49.6895V94.2262ZM45.2529 92.19C46.045 94.0865 48.2053 94.7881 50.0119 94.1728L49.3671 92.2796C48.3799 92.6158 47.4167 92.1813 47.0984 91.4192L45.2529 92.19ZM45.2393 92.1557C45.2393 92.1557 45.2393 92.1557 45.2393 92.1557C45.2393 92.1557 45.2393 92.1557 45.2393 92.1557C47.1756 91.8046 47.1119 91.4535 47.1119 91.4535H47.1119C47.1119 91.4535 47.1119 91.4535 47.1119 91.4535C47.1119 91.4535 47.1119 91.4535 47.1119 91.4535C47.1119 91.4535 47.1119 91.4535 47.1119 91.4535C47.1119 91.4535 47.1756 91.8046 45.2393 92.1557H45.2393V92.1557C45.2393 92.1557 45.2393 92.1557 45.2393 92.1557L47.1119 91.4535C47.1119 91.4535 47.1119 91.4535 47.1119 91.4535C47.1119 91.4535 47.1119 91.4535 47.1119 91.4535C45.1756 91.8046 45.2393 92.1557 45.2393 92.1557C45.2393 92.1557 45.2393 92.1557 45.2393 92.1557C45.2393 92.1557 45.2393 92.1557 45.2393 92.1557C45.2393 92.1557 45.2393 92.1557 45.2393 92.1557H45.2393C45.2393 92.1557 45.2393 92.1557 45.2393 92.1557C45.2393 92.1557 45.1756 91.8046 47.1119 91.4535C47.1119 91.4535 47.1119 91.4535 47.1119 91.4535V91.4535L45.2393 92.1557ZM44.2561 89.8041L45.2529 92.1901L47.0983 91.4191L46.1015 89.0331L44.2561 89.8041ZM37.3035 93.7335L45.5586 90.3436L44.7989 88.4935L36.5438 91.8834L37.3035 93.7335ZM35.9013 94.01C36.3821 94.01 36.8585 93.9162 37.3034 93.7335L36.5438 91.8834C36.3403 91.967 36.122 92.01 35.9015 92.01L35.9013 94.01ZM34.4993 93.7333C34.9442 93.9161 35.4205 94.01 35.9013 94.01L35.9015 92.01C35.6809 92.01 35.4627 91.9669 35.2592 91.8833L34.4993 93.7333ZM33.3075 92.9435C33.6493 93.2824 34.0544 93.5506 34.4993 93.7333L35.2592 91.8833C35.0557 91.7997 34.871 91.6773 34.7157 91.5233L33.3075 92.9435ZM32.5082 91.757C32.6939 92.2015 32.9657 92.6046 33.3075 92.9435L34.7157 91.5233C34.5604 91.3693 34.4375 91.1868 34.3537 90.9861L32.5082 91.757ZM29.7816 85.2316L32.5082 91.7571L34.3536 90.986L31.6269 84.4605L29.7816 85.2316ZM29.7823 82.4244C29.4068 83.3226 29.4066 84.3328 29.7813 85.231L31.6272 84.461C31.4581 84.0558 31.4583 83.6007 31.6275 83.1958L29.7823 82.4244ZM31.7734 80.4486C30.8752 80.8176 30.1576 81.5267 29.7823 82.4244L31.6275 83.1958C31.7969 82.7907 32.1222 82.4675 32.5334 82.2986L31.7734 80.4486ZM40.022 77.061L31.7735 80.4486L32.5333 82.2986L40.7818 78.911L40.022 77.061ZM38.4847 75.9908L39.4792 78.3715L41.3246 77.6006L40.3301 75.2199L38.4847 75.9908ZM40.4456 71.2287C38.724 72.0629 37.6894 74.0866 38.4847 75.9908L40.3302 75.22C40.0129 74.4604 40.3815 73.4822 41.3177 73.0286L40.4456 71.2287ZM94.9239 77.7514L83.8938 51.3505L82.0484 52.1215L93.0785 78.5224L94.9239 77.7514ZM84.7635 82.339L94.3235 79.0835L93.6788 77.1903L84.1188 80.4457L84.7635 82.339ZM42.6351 78.1434L41.2529 74.8344L39.4074 75.6054L40.7897 78.9143L42.6351 78.1434ZM32.9133 83.2236L42.0923 79.4539L41.3325 77.6038L32.1535 81.3736L32.9133 83.2236ZM45.3385 87.191L36.164 90.9584L36.9237 92.8085L46.0982 89.041L45.3385 87.191ZM48.021 91.0336L46.6411 87.7305L44.7956 88.5015L46.1756 91.8046L48.021 91.0336ZM82.5351 50.8361L40.4456 71.2287L41.3176 73.0286L83.4071 52.636L82.5351 50.8361Z" fill="#777777" mask="url(#path-4-inside-1_1_410)"/>
</g>
<path d="M118.189 69.2207L106.537 41.3312C106.428 41.0696 106.268 40.8319 106.066 40.6316C105.864 40.4314 105.624 40.2726 105.36 40.1642C105.096 40.0558 104.814 40 104.528 40C104.242 40 103.96 40.0557 103.696 40.1641L87.748 46.7133C87.4841 46.8217 87.2444 46.9805 87.0424 47.1807C86.8405 47.381 86.6803 47.6187 86.571 47.8803C86.4617 48.1419 86.4055 48.4223 86.4056 48.7054C86.4056 48.9886 86.4619 49.2689 86.5713 49.5305L98.2226 77.4201C98.4434 77.9485 98.8669 78.3682 99.3998 78.5871C99.9328 78.8059 100.532 78.806 101.065 78.5872L117.012 72.0379C117.276 71.9296 117.515 71.7708 117.717 71.5706C117.919 71.3704 118.08 71.1327 118.189 70.8711C118.298 70.6095 118.355 70.3291 118.355 70.0459C118.355 69.7627 118.298 69.4824 118.189 69.2207ZM82.4858 86.9663C83.871 85.268 84.6311 83.1523 84.6406 80.9682C84.6406 78.3948 83.6094 75.9268 81.7739 74.1071C79.9384 72.2874 77.4489 71.2651 74.8531 71.2651C72.2573 71.2651 69.7678 72.2874 67.9323 74.1071C66.0968 75.9268 65.0656 78.3948 65.0656 80.9682C65.075 83.1539 65.8361 85.271 67.2231 86.97L60.7708 106.161C60.6618 106.485 60.6321 106.831 60.6841 107.168C60.736 107.506 60.8682 107.827 61.0697 108.104C61.2713 108.381 61.5363 108.607 61.8431 108.763C62.1499 108.918 62.4896 108.999 62.8343 108.999H65.1261C65.5826 108.999 66.0275 108.857 66.3979 108.592C66.7682 108.328 67.0452 107.954 67.1896 107.525L72.9213 90.4776C74.1972 90.736 75.5127 90.7359 76.7886 90.4773L82.5208 107.525C82.6651 107.954 82.9421 108.328 83.3125 108.592C83.6828 108.857 84.1278 108.999 84.5843 108.999H86.8761C87.2208 108.999 87.5605 108.918 87.8673 108.763C88.174 108.607 88.4391 108.381 88.6406 108.104C88.8422 107.827 88.9744 107.506 89.0263 107.168C89.0783 106.831 89.0486 106.485 88.9396 106.161L82.4858 86.9663ZM74.8531 84.2026C74.2078 84.2026 73.577 84.0129 73.0405 83.6575C72.504 83.3021 72.0858 82.797 71.8389 82.206C71.592 81.615 71.5274 80.9646 71.6533 80.3372C71.7791 79.7098 72.0899 79.1335 72.5461 78.6812C73.0024 78.2288 73.5837 77.9208 74.2166 77.796C74.8495 77.6712 75.5054 77.7352 76.1016 77.9801C76.6977 78.2249 77.2073 78.6394 77.5657 79.1713C77.9242 79.7032 78.1156 80.3285 78.1156 80.9682C78.1143 81.8256 77.7701 82.6476 77.1586 83.2538C76.547 83.8601 75.7179 84.2013 74.8531 84.2026Z" fill="#AAAAAA"/>
<path fill-rule="evenodd" clip-rule="evenodd" d="M117.266 69.6062L105.614 41.7166C105.556 41.577 105.47 41.4495 105.362 41.3417C105.253 41.234 105.123 41.148 104.98 41.0892C104.837 41.0304 104.683 41 104.528 41C104.372 41 104.219 41.0303 104.076 41.0891C104.076 41.0891 104.076 41.0891 104.076 41.0891L88.1279 47.6384C87.9847 47.6972 87.8552 47.7831 87.7465 47.8909C87.6378 47.9986 87.5521 48.1261 87.4937 48.2657C87.4354 48.4053 87.4055 48.5547 87.4056 48.7052C87.4056 48.8558 87.4355 49.0052 87.4939 49.1448L99.1453 77.0345C99.1453 77.0346 99.1453 77.0345 99.1453 77.0345C99.2631 77.3164 99.4904 77.5432 99.7797 77.662C100.069 77.781 100.395 77.781 100.685 77.6622C100.685 77.6621 100.685 77.6622 100.685 77.6622L116.632 71.1129C116.775 71.0541 116.905 70.9681 117.013 70.8604C117.122 70.7526 117.208 70.6252 117.266 70.4855C117.325 70.3459 117.355 70.1965 117.355 70.0459C117.355 69.8953 117.325 69.7459 117.266 69.6062ZM101.065 78.5872C100.532 78.806 99.9328 78.8059 99.3998 78.5871C98.8669 78.3682 98.4434 77.9485 98.2226 77.4201L86.5713 49.5305C86.4619 49.2689 86.4056 48.9886 86.4056 48.7054C86.4055 48.4223 86.4617 48.1419 86.571 47.8803C86.6803 47.6187 86.8404 47.381 87.0424 47.1807C87.2444 46.9805 87.4841 46.8217 87.748 46.7133L103.696 40.1641C103.96 40.0557 104.242 40 104.528 40C104.814 40 105.096 40.0558 105.36 40.1642C105.624 40.2726 105.864 40.4314 106.066 40.6316C106.268 40.8319 106.428 41.0696 106.537 41.3312L118.189 69.2207C118.298 69.4824 118.355 69.7627 118.355 70.0459C118.355 70.3291 118.298 70.6095 118.189 70.8711C118.08 71.1327 117.919 71.3704 117.717 71.5706C117.515 71.7708 117.276 71.9296 117.012 72.0379L101.065 78.5872ZM81.362 86.7619L81.7108 86.3343C82.9515 84.8132 83.6315 82.9197 83.6405 80.9661C83.64 78.6614 82.7163 76.4496 81.0698 74.8172C79.4225 73.1841 77.1864 72.2651 74.8531 72.2651C72.5197 72.2651 70.2836 73.1841 68.6363 74.8172C66.9898 76.4496 66.0661 78.6615 66.0656 80.9661C66.0745 82.9212 66.7554 84.8159 67.9977 86.3376L68.3468 86.7654L61.7186 106.48C61.6605 106.653 61.6447 106.836 61.6724 107.016C61.7001 107.196 61.7705 107.367 61.8786 107.516C61.9866 107.665 62.1294 107.786 62.2957 107.871C62.4619 107.955 62.6466 107.999 62.8343 107.999H65.1259C65.126 107.999 65.1259 107.999 65.1259 107.999C65.3746 107.999 65.6163 107.922 65.8165 107.779C66.0165 107.636 66.1647 107.435 66.2417 107.206C66.2417 107.206 66.2417 107.206 66.2417 107.206L72.2547 89.3223L73.1197 89.4975C74.2646 89.7294 75.4451 89.7293 76.59 89.4973L77.4551 89.3219L83.4686 107.206C83.5456 107.435 83.6938 107.636 83.8938 107.779C84.094 107.922 84.3356 107.999 84.5843 107.999H86.8761C87.0638 107.999 87.2484 107.955 87.4147 107.871C87.5809 107.786 87.7237 107.665 87.8318 107.516C87.9398 107.367 88.0103 107.196 88.038 107.016C88.0656 106.836 88.0498 106.653 87.9917 106.48L81.362 86.7619ZM67.1896 107.525C67.0452 107.954 66.7682 108.328 66.3978 108.592C66.0275 108.857 65.5826 108.999 65.1261 108.999H62.8343C62.4896 108.999 62.1499 108.918 61.8431 108.763C61.5363 108.607 61.2712 108.381 61.0697 108.104C60.8682 107.827 60.736 107.506 60.684 107.168C60.6321 106.831 60.6619 106.485 60.7709 106.161L67.223 86.97C65.8361 85.271 65.075 83.1539 65.0656 80.9682C65.0656 78.3948 66.0967 75.9268 67.9322 74.1071C69.7678 72.2874 72.2572 71.2651 74.8531 71.2651C77.4489 71.2651 79.9383 72.2874 81.7739 74.1071C83.6094 75.9268 84.6405 78.3948 84.6405 80.9682C84.631 83.1523 83.871 85.268 82.4857 86.9663L88.9396 106.161C89.0486 106.485 89.0783 106.831 89.0263 107.168C88.9743 107.506 88.8421 107.827 88.6406 108.104C88.4391 108.381 88.174 108.607 87.8672 108.763C87.5604 108.918 87.2207 108.999 86.8761 108.999H84.5843C84.1277 108.999 83.6828 108.857 83.3124 108.592C82.9421 108.328 82.6651 107.954 82.5208 107.525L76.7886 90.4773C75.5127 90.7359 74.1972 90.736 72.9213 90.4776L67.1896 107.525ZM74.8545 85.2026H74.8531C74.0119 85.2026 73.189 84.9554 72.4883 84.4912C71.7874 84.0269 71.2399 83.3662 70.9162 82.5915C70.5925 81.8167 70.5076 80.9636 70.6728 80.1405C70.8379 79.3175 71.2453 78.5626 71.8421 77.971C72.4387 77.3795 73.1979 76.9776 74.0231 76.8149C74.8482 76.6522 75.7036 76.7356 76.4814 77.055C77.2593 77.3744 77.9256 77.916 78.395 78.6124C78.8644 79.309 79.1156 80.1288 79.1156 80.9682V80.9697C79.1138 82.0946 78.6623 83.1712 77.8626 83.964C77.0632 84.7565 75.9813 85.2009 74.8545 85.2026ZM74.8531 84.2026C74.2078 84.2026 73.577 84.0129 73.0405 83.6575C72.504 83.3021 72.0858 82.797 71.8389 82.206C71.592 81.615 71.5274 80.9646 71.6532 80.3372C71.7791 79.7098 72.0898 79.1335 72.5461 78.6812C73.0024 78.2288 73.5837 77.9208 74.2166 77.796C74.8494 77.6712 75.5054 77.7352 76.1016 77.9801C76.6977 78.2249 77.2072 78.6394 77.5657 79.1713C77.9242 79.7032 78.1156 80.3285 78.1156 80.9682C78.1142 81.8256 77.7701 82.6476 77.1585 83.2538C76.547 83.8601 75.7179 84.2013 74.8531 84.2026Z" fill="#777777"/>
</g>
<defs>
<clipPath id="clip0_1_410">
<rect width="87" height="69" fill="white" transform="translate(31 40)"/>
</clipPath>
<clipPath id="clip1_1_410">
<rect width="87" height="69" fill="white" transform="translate(31 40)"/>
</clipPath>
</defs>
</svg>
